<svg width="40" height="31" viewBox="0 0 40 31" fill="none" xmlns="http://www.w3.org/2000/svg">
<path fill-rule="evenodd" clip-rule="evenodd" d="M19.709 30.2133C28.6001 30.2133 35.8038 23.566 35.8038 15.3677C35.8038 7.16969 28.6003 0.522217 19.709 0.522217C10.818 0.522217 3.60889 7.16949 3.60889 15.3677C3.60889 23.566 10.818 30.2133 19.709 30.2133Z" fill="#265398"/>
<path fill-rule="evenodd" clip-rule="evenodd" d="M0.594172 19.069C0.467176 19.9762 1.63623 22.9609 1.79487 23.351C9.20492 28.3307 32.2287 29.8424 37.3114 29.0623C37.5756 28.1844 38.2422 25.9211 38.3111 25.6092C35.7194 25.8091 6.92519 24.468 0.594172 19.069ZM0.0810547 9.61765C4.04254 13.2462 31.3821 18.3475 39.9928 16.065C39.9507 16.7381 39.3581 18.7033 38.8717 19.7129C31.2234 22.3269 5.23254 18.3475 1.08056 14.2508C0.789798 13.3193 0.276681 11.6661 0.0810547 9.61765ZM12.2197 6.41357C12.2197 6.41357 31.229 10.0275 38.2688 7.9059C37.8136 9.83213 37.2849 11.7879 37.0678 11.8611C29.658 13.5973 12.1139 10.2079 12.1139 10.2079L12.2197 6.41357Z" fill="#A6D7F6"/>
<path fill-rule="evenodd" clip-rule="evenodd" d="M4.52915 20.1425C4.40365 19.9337 4.09984 18.8441 3.90464 17.848C7.42142 20.0189 20.3823 22.1734 33.794 22.5369C33.9154 22.3956 34.7618 20.7227 34.8148 20.4547C28.8486 20.8595 14.1129 19.8888 3.61922 15.8019C3.61922 15.8628 3.63782 16.2108 3.67395 16.6196C3.18393 16.7864 -0.072447 18.0477 0.667725 19.1962C0.895207 19.6252 2.99493 20.5131 3.40756 20.6493C3.59848 20.4985 4.29119 20.206 4.52915 20.1425ZM7.15268 6.24311C6.42277 6.93566 5.01597 9.06198 4.52402 10.6811C3.66198 10.7932 2.97953 11.1784 2.97953 11.1784C2.97953 11.1784 0.573012 10.4617 0.202712 9.81307C-1.19895 7.90616 5.05296 6.62832 7.15268 6.24311ZM8.88744 11.2469C22.3854 14.9582 35.3863 13.9973 35.7355 13.978C35.7196 13.8268 35.5873 12.8368 35.4445 12.1833C25.6861 12.6806 16.3877 10.9884 12.1511 10.2081C12.1246 9.96921 12.1722 8.87174 12.1722 8.87174L8.72902 7.88172C8.7288 7.88172 8.78182 10.4177 8.88744 11.2469ZM33.8735 8.5646C33.4822 7.87206 32.5723 6.54059 32.0273 5.97974C36.0949 6.44301 38.3849 7.09672 38.242 7.88665C38.0729 8.23775 36.0523 8.48161 33.8735 8.5646ZM35.6029 16.6212C36.4226 16.7283 39.7654 16.4018 39.9717 16.0895C40.3208 15.3095 37.3588 15.0264 35.6927 14.8801C35.6874 14.9875 35.6134 16.4749 35.6029 16.6212Z" fill="#113365"/>
</svg>
